# xmcd
#
# Track frame offsets: 
#        150
#        14114
#        32092
#        49382
#        59780
#        75854
#        91855
#        108953
#        120632
#        130948
#        141509
#
# Disc length: 2043 seconds
#
# Revision: 0
# Processed by: cddbd v1.5.2PL0 Copyright (c) Steve Scherf et al.
# Submitted via: ExactAudioCopy v0.95b3
#
DISCID=9907f90b
DTITLE=James Gang  - Newborn - 1975
DYEAR=1900
DGENRE=
TTITLE0=Merry-Go-Round
TTITLE1=Gonna Get By
TTITLE2=Earthshaker
TTITLE3=All I Have
TTITLE4=Watch It
TTITLE5=Driftin' Dreamer
TTITLE6=Shoulda' Seen Your face
TTITLE7=Come With Me
TTITLE8=Heartbreak Hotel
TTITLE9=Red Satin Lover
TTITLE10=Cold Wind
EXTD=
EXTT0=
EXTT1=
EXTT2=
EXTT3=
EXTT4=
EXTT5=
EXTT6=
EXTT7=
EXTT8=
EXTT9=
EXTT10=
PLAYORDER=
